<svg xmlns="http://www.w3.org/2000/svg" viewBox="0 0 256 256" fill="none">
  <defs>
    <linearGradient id="gameInkGradient1" x1="0%" y1="0%" x2="100%" y2="100%">
      <stop offset="0%" style="stop-color:#667eea;stop-opacity:1" />
      <stop offset="100%" style="stop-color:#764ba2;stop-opacity:1" />
    </linearGradient>
    <linearGradient id="gameInkGradient2" x1="0%" y1="0%" x2="100%" y2="100%">
      <stop offset="0%" style="stop-color:#f093fb;stop-opacity:1" />
      <stop offset="100%" style="stop-color:#667eea;stop-opacity:1" />
    </linearGradient>
  </defs>
  
  <!-- Game Controller Shape -->
  <path fill="url(#gameInkGradient1)" d="M128 20C80 20 40 50 40 90c0 15 5 28 13 38l-25 60c-3 8 2 16 10 16h30c5 0 9-3 11-7l15-30h68l15 30c2 4 6 7 11 7h30c8 0 13-8 10-16l-25-60c8-10 13-23 13-38c0-40-40-70-88-70z"/>
  
  <!-- D-Pad (Left) -->
  <circle cx="80" cy="100" r="8" fill="#fff" opacity="0.9"/>
  <circle cx="65" cy="100" r="6" fill="#fff" opacity="0.7"/>
  <circle cx="95" cy="100" r="6" fill="#fff" opacity="0.7"/>
  <circle cx="80" cy="85" r="6" fill="#fff" opacity="0.7"/>
  <circle cx="80" cy="115" r="6" fill="#fff" opacity="0.7"/>
  
  <!-- Buttons (Right) -->
  <circle cx="176" cy="85" r="8" fill="url(#gameInkGradient2)" opacity="0.9"/>
  <circle cx="191" cy="100" r="8" fill="url(#gameInkGradient2)" opacity="0.9"/>
  <circle cx="176" cy="115" r="8" fill="url(#gameInkGradient2)" opacity="0.9"/>
  <circle cx="161" cy="100" r="8" fill="url(#gameInkGradient2)" opacity="0.9"/>
  
  <!-- Ink Splash Effect -->
  <path fill="url(#gameInkGradient2)" opacity="0.6" d="M128 140c-15 0-28 5-38 13l-10 8c-3 2-2 7 2 8l15 5c4 1 8-1 9-5l3-8c6-3 12-5 19-5s13 2 19 5l3 8c1 4 5 6 9 5l15-5c4-1 5-6 2-8l-10-8c-10-8-23-13-38-13z"/>
  
  <!-- Ink Drips -->
  <ellipse cx="100" cy="180" rx="8" ry="12" fill="#667eea" opacity="0.4"/>
  <ellipse cx="128" cy="195" rx="6" ry="10" fill="#764ba2" opacity="0.4"/>
  <ellipse cx="156" cy="180" rx="8" ry="12" fill="#f093fb" opacity="0.4"/>
  
  <!-- Center Highlight -->
  <circle cx="128" cy="100" r="15" fill="#fff" opacity="0.15"/>
</svg>
